<mxfile host="app.diagrams.net" modified="2022-06-17T15:29:24.206Z" agent="5.0 (Windows NT 10.0; Win64; x64) AppleWebKit/537.36 (KHTML, like Gecko) Chrome/96.0.4664.45 Safari/537.36" etag="c42KHN2AX1t6q9GaHkRM" version="17.4.2" type="github">
  <diagram id="lrTtY_5kiqrnY5XGnI1i" name="第 1 页">
    <mxGraphModel dx="2500" dy="896" grid="1" gridSize="10" guides="1" tooltips="1" connect="1" arrows="1" fold="1" page="1" pageScale="1" pageWidth="827" pageHeight="1169" math="0" shadow="0">
      <root>
        <mxCell id="0" />
        <mxCell id="1" parent="0" />
        <mxCell id="ksmxbsS5LXwjX59TLl-v-1" value="&lt;font style=&quot;font-size: 32px ; font-weight: normal&quot;&gt;红绿&lt;/font&gt;" style="whiteSpace=wrap;html=1;aspect=fixed;fontStyle=1;fillColor=#b1ddf0;strokeColor=#10739e;" vertex="1" parent="1">
          <mxGeometry x="270" y="120" width="199" height="199" as="geometry" />
        </mxCell>
        <mxCell id="ksmxbsS5LXwjX59TLl-v-13" value="" style="html=1;shadow=0;dashed=0;align=center;verticalAlign=middle;shape=mxgraph.arrows2.bendArrow;dy=15;dx=38;notch=0;arrowHead=55;rounded=1;direction=south;fillColor=#b0e3e6;strokeColor=#0e8088;" vertex="1" parent="1">
          <mxGeometry x="510" y="170" width="190" height="170" as="geometry" />
        </mxCell>
        <mxCell id="ksmxbsS5LXwjX59TLl-v-16" value="&lt;font style=&quot;font-size: 32px&quot;&gt;绿红&lt;/font&gt;" style="whiteSpace=wrap;html=1;aspect=fixed;fillColor=#b1ddf0;strokeColor=#10739e;" vertex="1" parent="1">
          <mxGeometry x="280" y="620" width="199" height="199" as="geometry" />
        </mxCell>
        <mxCell id="ksmxbsS5LXwjX59TLl-v-17" value="&lt;font style=&quot;font-size: 32px&quot;&gt;红黄&lt;/font&gt;" style="whiteSpace=wrap;html=1;aspect=fixed;fillColor=#b1ddf0;strokeColor=#10739e;" vertex="1" parent="1">
          <mxGeometry x="560" y="350" width="199" height="199" as="geometry" />
        </mxCell>
        <mxCell id="ksmxbsS5LXwjX59TLl-v-18" value="&lt;font style=&quot;font-size: 32px&quot;&gt;绿黄&lt;/font&gt;" style="whiteSpace=wrap;html=1;aspect=fixed;fillColor=#b1ddf0;strokeColor=#10739e;" vertex="1" parent="1">
          <mxGeometry x="10" y="360" width="199" height="199" as="geometry" />
        </mxCell>
        <mxCell id="ksmxbsS5LXwjX59TLl-v-19" value="" style="html=1;shadow=0;dashed=0;align=center;verticalAlign=middle;shape=mxgraph.arrows2.bendArrow;dy=15;dx=38;notch=0;arrowHead=55;rounded=1;direction=north;fillColor=#b0e3e6;strokeColor=#0e8088;" vertex="1" parent="1">
          <mxGeometry x="80" y="580" width="190" height="170" as="geometry" />
        </mxCell>
        <mxCell id="ksmxbsS5LXwjX59TLl-v-20" value="" style="html=1;shadow=0;dashed=0;align=center;verticalAlign=middle;shape=mxgraph.arrows2.bendArrow;dy=15;dx=38;notch=0;arrowHead=55;rounded=1;direction=west;fillColor=#b0e3e6;strokeColor=#0e8088;" vertex="1" parent="1">
          <mxGeometry x="510" y="580" width="170" height="190" as="geometry" />
        </mxCell>
        <mxCell id="ksmxbsS5LXwjX59TLl-v-21" value="" style="html=1;shadow=0;dashed=0;align=center;verticalAlign=middle;shape=mxgraph.arrows2.bendArrow;dy=15;dx=38;notch=0;arrowHead=55;rounded=1;direction=east;fillColor=#b0e3e6;strokeColor=#0e8088;" vertex="1" parent="1">
          <mxGeometry x="80" y="160" width="170" height="190" as="geometry" />
        </mxCell>
        <mxCell id="ksmxbsS5LXwjX59TLl-v-28" value="" style="html=1;shadow=0;dashed=0;align=center;verticalAlign=middle;shape=mxgraph.arrows2.uTurnArrow;dy=11;arrowHead=43;dx2=25;fontSize=32;direction=north;fillColor=#b0e3e6;strokeColor=#0e8088;" vertex="1" parent="1">
          <mxGeometry x="319.5" y="319" width="100" height="100" as="geometry" />
        </mxCell>
        <mxCell id="ksmxbsS5LXwjX59TLl-v-29" value="" style="html=1;shadow=0;dashed=0;align=center;verticalAlign=middle;shape=mxgraph.arrows2.uTurnArrow;dy=11;arrowHead=43;dx2=25;fontSize=32;direction=south;fillColor=#b0e3e6;strokeColor=#0e8088;" vertex="1" parent="1">
          <mxGeometry x="340" y="520" width="100" height="100" as="geometry" />
        </mxCell>
        <mxCell id="ksmxbsS5LXwjX59TLl-v-30" value="" style="html=1;shadow=0;dashed=0;align=center;verticalAlign=middle;shape=mxgraph.arrows2.uTurnArrow;dy=11;arrowHead=43;dx2=25;fontSize=32;direction=west;fillColor=#b0e3e6;strokeColor=#0e8088;" vertex="1" parent="1">
          <mxGeometry x="209" y="409.5" width="100" height="100" as="geometry" />
        </mxCell>
        <mxCell id="ksmxbsS5LXwjX59TLl-v-31" value="" style="html=1;shadow=0;dashed=0;align=center;verticalAlign=middle;shape=mxgraph.arrows2.uTurnArrow;dy=11;arrowHead=43;dx2=25;fontSize=32;direction=east;fillColor=#b0e3e6;strokeColor=#0e8088;" vertex="1" parent="1">
          <mxGeometry x="460" y="409.5" width="100" height="100" as="geometry" />
        </mxCell>
        <mxCell id="ksmxbsS5LXwjX59TLl-v-32" value="0" style="text;html=1;align=center;verticalAlign=middle;resizable=0;points=[];autosize=1;strokeColor=none;fillColor=none;fontSize=32;" vertex="1" parent="1">
          <mxGeometry x="355" y="320" width="30" height="40" as="geometry" />
        </mxCell>
        <mxCell id="ksmxbsS5LXwjX59TLl-v-33" value="&lt;span style=&quot;color: rgb(0, 0, 0); font-family: helvetica; font-size: 32px; font-style: normal; font-weight: 400; letter-spacing: normal; text-align: center; text-indent: 0px; text-transform: none; word-spacing: 0px; background-color: rgb(248, 249, 250); display: inline; float: none;&quot;&gt;0&lt;/span&gt;" style="text;whiteSpace=wrap;html=1;fontSize=32;" vertex="1" parent="1">
          <mxGeometry x="530" y="440" width="40" height="49.5" as="geometry" />
        </mxCell>
        <mxCell id="ksmxbsS5LXwjX59TLl-v-34" value="&lt;span style=&quot;color: rgb(0, 0, 0); font-family: helvetica; font-size: 32px; font-style: normal; font-weight: 400; letter-spacing: normal; text-align: center; text-indent: 0px; text-transform: none; word-spacing: 0px; background-color: rgb(248, 249, 250); display: inline; float: none;&quot;&gt;0&lt;/span&gt;" style="text;whiteSpace=wrap;html=1;fontSize=32;" vertex="1" parent="1">
          <mxGeometry x="210" y="440" width="40" height="49.5" as="geometry" />
        </mxCell>
        <mxCell id="ksmxbsS5LXwjX59TLl-v-35" value="&lt;span style=&quot;color: rgb(0, 0, 0); font-family: helvetica; font-size: 32px; font-style: normal; font-weight: 400; letter-spacing: normal; text-align: center; text-indent: 0px; text-transform: none; word-spacing: 0px; background-color: rgb(248, 249, 250); display: inline; float: none;&quot;&gt;0&lt;/span&gt;" style="text;whiteSpace=wrap;html=1;fontSize=32;" vertex="1" parent="1">
          <mxGeometry x="379.5" y="570.5" width="40" height="49.5" as="geometry" />
        </mxCell>
        <mxCell id="ksmxbsS5LXwjX59TLl-v-36" value="state=1" style="text;html=1;align=center;verticalAlign=middle;resizable=0;points=[];autosize=1;strokeColor=none;fillColor=none;fontSize=32;" vertex="1" parent="1">
          <mxGeometry x="520" y="130" width="120" height="40" as="geometry" />
        </mxCell>
        <mxCell id="ksmxbsS5LXwjX59TLl-v-38" value="state=1" style="text;html=1;align=center;verticalAlign=middle;resizable=0;points=[];autosize=1;strokeColor=none;fillColor=none;fontSize=32;rotation=0;" vertex="1" parent="1">
          <mxGeometry x="330" y="819" width="120" height="40" as="geometry" />
        </mxCell>
        <mxCell id="ksmxbsS5LXwjX59TLl-v-39" value="state=1" style="text;html=1;align=center;verticalAlign=middle;resizable=0;points=[];autosize=1;strokeColor=none;fillColor=none;fontSize=32;rotation=270;" vertex="1" parent="1">
          <mxGeometry x="-70" y="439.5" width="120" height="40" as="geometry" />
        </mxCell>
        <mxCell id="ksmxbsS5LXwjX59TLl-v-40" value="state=1" style="text;html=1;align=center;verticalAlign=middle;resizable=0;points=[];autosize=1;strokeColor=none;fillColor=none;fontSize=32;rotation=90;" vertex="1" parent="1">
          <mxGeometry x="730" y="439.5" width="120" height="40" as="geometry" />
        </mxCell>
      </root>
    </mxGraphModel>
  </diagram>
</mxfile>
